<svg xmlns="http://www.w3.org/2000/svg" viewBox="0 0 56 56" class="design-iconfont">
  <g fill="#FFF" fill-rule="evenodd" opacity=".90000004">
    <path d="M8.67945,27.2776 L11.66545,24.2916 L8.81645,24.2916 C7.98845,24.2916 7.31645,24.9636 7.31645,25.7916 C7.31645,26.5726 7.91645,27.2076 8.67945,27.2776" transform="translate(7.54685 7.5469)"/>
    <path d="M1.49975,40.9065 C1.11575,40.9065 0.73175,40.7605 0.43875,40.4675 C-0.14625,39.8815 -0.14625,38.9315 0.43875,38.3455 L38.34575,0.4395 C38.93175,-0.1465 39.88075,-0.1465 40.46675,0.4395 C41.05275,1.0245 41.05275,1.9745 40.46675,2.5605 L2.56075,40.4675 C2.26775,40.7605 1.88375,40.9065 1.49975,40.9065" transform="translate(7.54685 7.5469)"/>
    <path d="M3.91485,32.0422 C3.52285,31.4142 3.28585,30.6792 3.28585,29.8862 L3.28585,11.1202 C3.28585,8.8592 5.12585,7.0202 7.38685,7.0202 L24.30685,7.0202 C25.57185,7.0202 26.69085,7.6082 27.44385,8.5122 L29.57685,6.3792 C28.27685,4.9352 26.39885,4.0202 24.30685,4.0202 L7.38685,4.0202 C3.47185,4.0202 0.28585,7.2052 0.28585,11.1202 L0.28585,29.8862 C0.28585,31.5082 0.83985,33.0012 1.75885,34.1982 L3.91485,32.0422 Z" transform="translate(7.54685 7.5469)"/>
    <path d="M37.77905,29.2688 C37.77905,29.5458 37.43205,29.7268 37.20305,29.5698 L31.40605,25.5358 L31.40605,15.4698 L37.20305,11.4368 C37.36705,11.3218 37.59705,11.3608 37.71405,11.5278 C37.75705,11.5888 37.77905,11.6618 37.77905,11.7368 L37.77905,29.2688 Z M37.47505,8.3808 L28.40605,17.4498 L28.40605,26.3188 L28.40605,29.8858 C28.40605,32.1468 26.56705,33.9868 24.30605,33.9868 L11.86905,33.9868 L8.86905,36.9868 L24.30605,36.9868 C28.22105,36.9868 31.40605,33.8008 31.40605,29.8858 L31.40605,29.1898 L35.49105,32.0328 C36.05805,32.4268 36.72305,32.6358 37.41305,32.6358 C39.26905,32.6358 40.77905,31.1248 40.77905,29.2688 L40.77905,11.7368 C40.77905,11.0448 40.57105,10.3808 40.17605,9.8138 C39.53805,8.8948 38.51805,8.4018 37.47505,8.3808 L37.47505,8.3808 Z" transform="translate(7.54685 7.5469)"/>
  </g>
</svg>
