<svg xmlns="http://www.w3.org/2000/svg" viewBox="0 0 36 36" class="design-iconfont">
  <defs>
    <filter x="-59.1%" y="-43.4%" width="218.1%" height="186.9%" filterUnits="objectBoundingBox" id="3zts3x6me__wlpak5q8ka">
      <feOffset dy="2" in="SourceAlpha" result="shadowOffsetOuter1"/>
      <feGaussianBlur stdDeviation="2" in="shadowOffsetOuter1" result="shadowBlurOuter1"/>
      <feColorMatrix values="0 0 0 0 0 0 0 0 0 0 0 0 0 0 0 0 0 0 0.2 0" in="shadowBlurOuter1" result="shadowMatrixOuter1"/>
      <feMerge>
        <feMergeNode in="shadowMatrixOuter1"/>
        <feMergeNode in="SourceGraphic"/>
      </feMerge>
    </filter>
  </defs>
  <g filter="url(#3zts3x6me__wlpak5q8ka)" transform="translate(8.075853 4.168889)" fill="#FFF" fill-rule="nonzero">
    <path d="M2.4562154,14.8044995 C2.72493746,15.6550294 3.13360795,16.45328 3.66366518,17.1690422 C5.17873113,19.2149099 7.56518634,20.4444444 10.1588116,20.4444444 C11.336146,20.4444444 12.4707917,20.1910915 13.5006206,19.7230347 L15.368559,21.5910246 C13.8094255,22.4726202 12.0242689,22.9587302 10.1588116,22.9587302 C6.75981745,22.9587302 3.62741702,21.3448744 1.64310784,18.6653646 C0.9480999,17.7268614 0.411707652,16.6791335 0.0587443422,15.5619723 C-0.150426021,14.899929 0.216700073,14.1936707 0.878743425,13.9845004 C1.54078678,13.77533 2.24704504,14.1424561 2.4562154,14.8044995 Z M19.4388797,13.9845004 C20.100923,14.1936707 20.4680491,14.899929 20.2588788,15.5619723 C19.9059155,16.6791335 19.3695232,17.7268614 18.6745153,18.6653646 C18.2949568,19.1779009 17.873392,19.6514471 17.4159901,20.0821665 L15.637301,18.3030394 C16.0079492,17.9604451 16.3486467,17.5813189 16.6539579,17.1690422 C17.1840152,16.45328 17.5926857,15.6550294 17.8614077,14.8044995 C18.0705781,14.1424561 18.7768363,13.77533 19.4388797,13.9845004 Z M3.968,10.189 L12.2028913,18.42433 C11.5717615,18.6398832 10.8949462,18.7568438 10.1908132,18.7568438 C6.83074006,18.7568438 4.09272491,16.0934969 3.97269464,12.7627301 L3.96859098,12.5346216 L3.968,10.189 Z M10.1908132,-4.63273864e-12 C13.5508863,-4.63273864e-12 16.2889015,2.66334686 16.4089318,5.99411369 L16.4130354,6.22222222 L16.4130354,12.5346216 C16.4130354,14.3348719 15.6485027,15.9565561 14.4264082,17.0927032 L3.968,6.634 L3.96859098,6.22222222 C3.96859098,2.78578378 6.75437476,-4.63273864e-12 10.1908132,-4.63273864e-12 Z"/>
    <path d="M1.40346627,2.29201814 C1.83986167,1.85562274 2.51727159,1.80713437 3.00722577,2.14655301 L3.18133474,2.29201814 L19.8480014,18.9586848 C20.3389462,19.4496296 20.3389462,20.2456085 19.8480014,20.7365533 C19.411606,21.1729487 18.7341961,21.2214371 18.2442419,20.8820184 L18.0701329,20.7365533 L1.40346627,4.06988662 C0.912521443,3.5789418 0.912521443,2.78296297 1.40346627,2.29201814 Z"/>
    <path d="M10.1588116,20.4444444 C10.7836823,20.4444444 11.3020714,20.9003465 11.3995005,21.4976722 L11.4159544,21.7015873 L11.4159544,26.368254 C11.4159544,27.0625548 10.8531124,27.6253968 10.1588116,27.6253968 C9.53394081,27.6253968 9.01555169,27.1694948 8.91812258,26.5721691 L8.9016687,26.368254 L8.9016687,21.7015873 C8.9016687,21.0072865 9.46451073,20.4444444 10.1588116,20.4444444 Z"/>
  </g>
</svg>
