<svg xmlns="http://www.w3.org/2000/svg" xmlns:xlink="http://www.w3.org/1999/xlink" viewBox="0 0 160 160" class="design-iconfont">
  <defs>
    <path id="hk7jbq3m9__96yjvd774a" d="M80 0A80 80 0 1 0 80 160A80 80 0 1 0 80 0Z"/>
  </defs>
  <g fill="none" fill-rule="evenodd">
    <!-- 将背景路径移除或设置为透明 -->
    <!-- <path fill="#1C1F2E" d="M0 0H1607V1612H0z" transform="translate(-248 -1309)"/> -->
    <path fill="#FFF" opacity=".1" d="M80 0A80 80 0 1 0 80 160A80 80 0 1 0 80 0Z"/>
    <g>
      <mask id="hk7jbq3m9__psxsd42u9b" fill="#fff">
        <use xlink:href="#hk7jbq3m9__96yjvd774a"/>
      </mask>
      <path d="M78.7516751,32.3404255 C95.2589356,32.3404255 108.640139,45.4859865 108.640139,61.6989848 C108.640139,77.9161735 95.2589356,91.0617345 78.7516751,91.0617345 C62.2444147,91.0617345 48.8632114,77.9161735 48.8632114,61.6989848 C48.8632114,45.481796 62.2486107,32.3404255 78.7516751,32.3404255 L78.7516751,32.3404255 Z M78.7516751,32.3404255 C95.2589356,32.3404255 108.640139,45.4859865 108.640139,61.6989848 C108.640139,77.9161735 95.2589356,91.0617345 78.7516751,91.0617345 C62.2444147,91.0617345 48.8632114,77.9161735 48.8632114,61.6989848 C48.8632114,45.481796 62.2486107,32.3404255 78.7516751,32.3404255 L78.7516751,32.3404255 Z M92.4559743,100.850715 C113.7803,100.850715 131.06383,117.826382 131.06383,138.774631 L131.06383,156.536835 C131.06383,164.792096 113.776104,165.106383 92.4559743,165.106383 L67.5440257,165.106383 C46.2196999,165.106383 28.9361702,165.093812 28.9361702,156.536835 L28.9361702,138.774631 C28.9361702,117.826382 46.2196999,100.850715 67.5440257,100.850715 L92.4559743,100.850715 Z" fill="#FFF" fill-rule="nonzero" opacity=".14999999" mask="url(#hk7jbq3m9__psxsd42u9b)"/>
    </g>
  </g>
</svg>
