<svg xmlns="http://www.w3.org/2000/svg" viewBox="0 0 36 36" class="design-iconfont">
  <defs>
    <filter x="-59.1%" y="-43.4%" width="218.1%" height="186.9%" filterUnits="objectBoundingBox" id="f312gdakz__mor3o6owka">
      <feOffset dy="2" in="SourceAlpha" result="shadowOffsetOuter1"/>
      <feGaussianBlur stdDeviation="2" in="shadowOffsetOuter1" result="shadowBlurOuter1"/>
      <feColorMatrix values="0 0 0 0 0 0 0 0 0 0 0 0 0 0 0 0 0 0 0.2 0" in="shadowBlurOuter1" result="shadowMatrixOuter1"/>
      <feMerge>
        <feMergeNode in="shadowMatrixOuter1"/>
        <feMergeNode in="SourceGraphic"/>
      </feMerge>
    </filter>
  </defs>
  <g filter="url(#f312gdakz__mor3o6owka)" transform="translate(8.075853 4.168889)" fill-rule="nonzero" fill="none">
    <path d="M6.22222222,-2.29860575e-12 C2.78578378,-2.29860575e-12 9.85878046e-13,2.78578378 9.85878046e-13,6.22222222 L9.85878046e-13,12.5346216 C9.85878046e-13,15.97106 2.78578378,18.7568438 6.22222222,18.7568438 C9.65866067,18.7568438 12.4444444,15.97106 12.4444444,12.5346216 L12.4444444,6.22222222 C12.4444444,2.78578378 9.65866067,-2.29860575e-12 6.22222222,-2.29860575e-12 Z" fill="#FFF" transform="translate(3.968591)"/>
    <path d="M1.77777778,9.95936508 L1.77777778,12.5358546 C1.77777778,14.9904535 3.76762333,16.9802991 6.22222222,16.9802991 C8.67682111,16.9802991 10.6666667,14.9904535 10.6666667,12.5358546 L10.6666667,9.95936508 L1.77777778,9.95936508 Z" fill="#3478FC" transform="translate(3.968591)"/>
    <path d="M17.8614077,14.8044995 C18.0705781,14.1424561 18.7768363,13.77533 19.4388797,13.9845004 C20.100923,14.1936707 20.4680491,14.899929 20.2588788,15.5619723 C19.9059155,16.6791335 19.3695232,17.7268614 18.6745153,18.6653646 C16.6902061,21.3448744 13.5578057,22.9587302 10.1588116,22.9587302 C6.75981745,22.9587302 3.62741702,21.3448744 1.64310784,18.6653646 C0.9480999,17.7268614 0.411707652,16.6791335 0.0587443422,15.5619723 C-0.150426021,14.899929 0.216700073,14.1936707 0.878743425,13.9845004 C1.54078678,13.77533 2.24704504,14.1424561 2.4562154,14.8044995 C2.72493746,15.6550294 3.13360795,16.45328 3.66366518,17.1690422 C5.17873113,19.2149099 7.56518634,20.4444444 10.1588116,20.4444444 C12.7524368,20.4444444 15.138892,19.2149099 16.6539579,17.1690422 C17.1840152,16.45328 17.5926857,15.6550294 17.8614077,14.8044995 Z" fill="#FFF"/>
    <path d="M10.1588116,20.4444444 C10.7836823,20.4444444 11.3020714,20.9003465 11.3995005,21.4976722 L11.4159544,21.7015873 L11.4159544,26.368254 C11.4159544,27.0625548 10.8531124,27.6253968 10.1588116,27.6253968 C9.53394081,27.6253968 9.01555169,27.1694948 8.91812258,26.5721691 L8.9016687,26.368254 L8.9016687,21.7015873 C8.9016687,21.0072865 9.46451073,20.4444444 10.1588116,20.4444444 Z" fill="#FFF"/>
  </g>
</svg>
