<svg xmlns="http://www.w3.org/2000/svg" viewBox="0 0 56 57" class="design-iconfont">
  <g fill="none" fill-rule="evenodd" opacity=".90000004">
    <path d="M33.9565217,33.4084028 L3,33.4084028 C1.34314575,33.4084028 2.02906125e-16,32.0652571 0,30.4084028 L0,9.29100077 C2.93986836e-14,7.63414652 1.34314575,6.29100077 3,6.29100077 L6.25812778,6.29100077 C7.50023149,6.29100077 8.61388298,5.52555644 9.05893837,4.36592403 L9.99571129,1.92507674 C10.4407667,0.765444331 11.5544182,1.33138046e-15 12.7965219,0 L24.0844894,0 C25.3265615,8.75016741e-16 26.4401916,0.765406013 26.885269,1.92499617 L27.8221844,4.36600459 C28.2672618,5.52559476 29.3808919,6.29100077 30.622964,6.29100077 L33.9565217,6.29100077 C35.613376,6.29100077 36.9565217,7.63414652 36.9565217,9.29100077 L36.9565217,30.4084028 C36.9565217,32.0652571 35.613376,33.4084028 33.9565217,33.4084028 Z" stroke="#FFF" stroke-width="3" transform="translate(10 12.802795)"/>
    <path d="M14.9445799,8.38279988 L17.8871529,12.5866205 C18.156165,12.9708751 18.725619,12.9708751 18.994631,12.5866205 L21.9372041,8.38279988 C22.2508262,7.93467173 21.930445,7.31925592 21.383634,7.31925592 L15.49815,7.31925592 C14.951339,7.31925592 14.6309578,7.93467173 14.9445799,8.38279988" fill="#FFF" transform="translate(17.447962 24.642857)"/>
    <path d="M5.98735045,1.59214109 C7.2905078,0.593440611 8.92042157,0 10.6891385,0 C14.9617744,0 18.4257109,3.46370896 18.4257109,7.73657238 C18.4257109,7.91542373 18.4195672,8.0929098 18.4077348,8.2685755" stroke="#FFF" stroke-width="3" transform="translate(17.447962 24.642857)"/>
    <path d="M7.11602515,6.86275312 L4.17345213,2.65893254 C3.90444005,2.27467786 3.3349861,2.27467786 3.06597403,2.65893254 L0.12340101,6.86275312 C-0.190221106,7.31088128 0.130160108,7.92629709 0.676971081,7.92629709 L6.56245507,7.92629709 C7.10892809,7.92629709 7.42964726,7.31088128 7.11602515,6.86275312" fill="#FFF" transform="translate(17.447962 24.642857)"/>
    <path d="M16.0732696,13.6534119 C14.7701122,14.6521124 13.1401984,15.245553 11.3714815,15.245553 C7.0988456,15.245553 3.63490909,11.781844 3.63490909,7.50898062 C3.63490909,7.33012928 3.64105284,7.1526432 3.65288524,6.9769775" stroke="#FFF" stroke-width="3" transform="translate(17.447962 24.642857)"/>
  </g>
</svg>
