<svg xmlns="http://www.w3.org/2000/svg" viewBox="0 0 46 46" class="design-iconfont">
  <path d="M8.84901981,31.3800185 C12.5862853,30.4962772 13.1204395,30.3189271 13.8329136,29.4321764 C14.5453878,28.5456265 14.6344471,28.1022512 14.1000915,25.2706679 C14.1000915,24.915767 13.2123196,21.0174749 24.1541175,20.7514497 C32.5190398,20.9287998 32.7833968,23.6747174 33.0503731,25.3591423 C32.9615153,26.6890676 32.6052782,27.7531683 33.4930501,28.9918105 C34.0272042,29.5236602 35.1847732,30.4988853 39.1892166,31.116802 C42.0358894,31.6460436 42.3030672,31.5573686 43.1017798,30.7621017 C43.9033132,30.1415769 44.7018243,28.4595595 44.9690021,26.2432848 C45.4142985,24.2037584 44.7908836,22.8738331 43.8114331,21.5495253 C42.5646033,19.9535748 37.9397674,14.8166405 25.0390685,14.1959151 C12.1381681,13.5751897 2.70473604,19.9535748 1.8171657,24.7386175 C1.5497864,26.7779433 2.44037911,29.6095266 3.50888888,30.8507768 C4.22136305,31.9148775 5.20101503,32.1807021 8.84901981,31.3800185" fill="#FFF" fill-rule="evenodd"/>
</svg>
