<svg xmlns="http://www.w3.org/2000/svg" viewBox="0 0 56 56" class="design-iconfont">
  <g fill="#FFF" fill-rule="evenodd" opacity=".90000004">
    <path d="M16.1389,34.9111 L18.2579,32.7921 C17.0229,31.4821 16.0389,29.9161 15.4139,28.1481 C15.1379,27.3671 14.2799,26.9561 13.4999,27.2341 C12.7189,27.5101 12.3099,28.3671 12.5859,29.1481 C13.3639,31.3471 14.5929,33.2921 16.1389,34.9111"/>
    <path d="M42.3323,27.2344 C41.5523,26.9564 40.6943,27.3674 40.4183,28.1484 C38.5503,33.4344 33.5253,36.9854 27.9163,36.9854 C26.7243,36.9854 25.5643,36.8034 24.4513,36.4984 L22.0793,38.8694 C23.4773,39.4114 24.9503,39.7804 26.4813,39.9174 L26.4993,44.3634 L19.7903,44.3634 C18.9623,44.3634 18.2903,45.0354 18.2903,45.8634 C18.2903,46.6914 18.9623,47.3634 19.7903,47.3634 L36.1863,47.3634 C37.0143,47.3634 37.6863,46.6914 37.6863,45.8634 C37.6863,45.0354 37.0143,44.3634 36.1863,44.3634 L29.4993,44.3634 L29.4813,39.9014 C35.7143,39.2974 41.1313,35.1324 43.2463,29.1484 C43.5223,28.3674 43.1133,27.5104 42.3323,27.2344"/>
    <path d="M9.0462,48.4531 C8.6622,48.4531 8.2782,48.3071 7.9852,48.0141 C7.4002,47.4281 7.4002,46.4781 7.9852,45.8921 L45.8932,7.9861 C46.4792,7.4001 47.4282,7.4001 48.0142,7.9861 C48.6002,8.5711 48.6002,9.5211 48.0142,10.1071 L10.1072,48.0141 C9.8142,48.3071 9.4302,48.4531 9.0462,48.4531"/>
    <path d="M23.1565,27.8936 C22.1435,26.7396 21.5855,25.2786 21.5855,23.7286 L21.5855,15.5316 C21.5855,13.8396 22.2435,12.2496 23.4395,11.0546 C24.6355,9.8586 26.2245,9.2006 27.9165,9.2006 C29.6075,9.2006 31.1975,9.8586 32.3925,11.0546 C33.5895,12.2506 34.2475,13.8406 34.2475,15.5316 L34.2475,16.8036 L37.1045,13.9456 C36.7825,12.0576 35.8965,10.3156 34.5135,8.9336 C32.7525,7.1706 30.4085,6.2006 27.9165,6.2006 C25.4245,6.2006 23.0805,7.1706 21.3185,8.9326 C19.5555,10.6946 18.5855,13.0376 18.5855,15.5316 L18.5855,23.7286 C18.5855,26.0806 19.4585,28.2926 21.0355,30.0146 L23.1565,27.8936 Z"/>
    <path d="M27.8899,33.0586 C27.8989,33.0586 27.9079,33.0606 27.9159,33.0606 C30.4089,33.0606 32.7509,32.0896 34.5139,30.3276 C36.2769,28.5636 37.2469,26.2206 37.2469,23.7286 L37.2469,23.7026 L27.8899,33.0586 Z"/>
  </g>
</svg>
