<svg xmlns="http://www.w3.org/2000/svg" viewBox="0 0 56 56" class="design-iconfont">
  <g stroke="#FFF" stroke-linecap="round" stroke-linejoin="round" stroke-width="3" fill="none" fill-rule="evenodd" opacity=".90000004">
    <path d="M13.9161836,-1.5 C16.078698,-1.5 18.0364873,-0.623467866 19.453648,0.79369286 C20.8708087,2.21085359 21.7473409,4.1686429 21.7473409,6.33115727 L21.7473409,6.33115727 L21.7473409,14.5289812 C21.7473409,16.6914956 20.8708087,18.6492849 19.453648,20.0664456 C18.0364873,21.4836063 16.078698,22.3601385 13.9161836,22.3601385 C11.7536692,22.3601385 9.79587993,21.4836063 8.3787192,20.0664456 C6.96155847,18.6492849 6.08502634,16.6914956 6.08502634,14.5289812 L6.08502634,14.5289812 L6.08502634,6.33115727 C6.08502634,4.1686429 6.96155847,2.21085359 8.3787192,0.79369286 C9.79587993,-0.623467866 11.7536692,-1.5 13.9161836,-1.5 L13.9161836,-1.5 Z" transform="translate(14 9.2)"/>
    <path d="M27.8323672,19.4483836 C25.8064699,25.1792389 20.3408102,29.2850643 13.9161836,29.2850643 C7.49155701,29.2850643 2.02589732,25.1792389 0,19.4483836" transform="translate(14 9.2)"/>
    <path d="M5.79000593 36.6631058L22.1856538 36.6631058" transform="translate(14 9.2)"/>
    <path d="M13.9784609 30.1048467L14 35.4666667" transform="translate(14 9.2)"/>
  </g>
</svg>
